<?xml version="1.0" encoding="UTF-8"?>
<!DOCTYPE svg PUBLIC "-//W3C//DTD SVG 1.1//EN" "http://www.w3.org/Graphics/SVG/1.1/DTD/svg11.dtd">
<svg xmlns="http://www.w3.org/2000/svg" version="1.1" width="1113px" height="1165px" style="shape-rendering:geometricPrecision; text-rendering:geometricPrecision; image-rendering:optimizeQuality; fill-rule:evenodd; clip-rule:evenodd" xmlns:xlink="http://www.w3.org/1999/xlink">
<g><path fill="#fef6e9" stroke="#fef6e9" stroke-width="0.5" d="M 847.77,693.05 C 853.19,693.08 858.6,693.03 864.01,692.88 C 869.51,692.92 875,692.95 880.5,692.97 C 885.69,693.3 890.88,693.63 896.07,693.95 C 898.32,694.16 900.29,695.02 901.98,696.51 C 904.68,698.54 906.62,701.13 907.8,704.26 C 909.79,712.59 912.14,720.81 914.86,728.93 C 915.11,729.58 915.46,730.16 915.92,730.68 C 915.2,731 914.91,731.55 915.06,732.35 C 916.7,738.73 918.36,745.11 920.02,751.48 C 925.94,771.88 931.87,792.27 937.8,812.66 C 941.23,825.46 944.74,838.24 948.34,851 C 948.56,851.57 948.46,852.06 948.05,852.49 C 947.1,852.82 946.14,852.87 945.15,852.64 C 935,850.89 924.78,849.7 914.5,849.06 C 894.17,848.23 873.91,849.03 853.71,851.46 C 836.46,853.57 819.56,857.26 803.01,862.52 C 791.87,866.34 780.98,870.78 770.35,875.84 C 758.88,881.43 747.77,887.65 737,894.5 C 721.75,904.31 708.06,915.95 695.91,929.41 C 690.74,935.24 685.6,941.11 680.51,947.02 C 674.24,954.52 668.47,962.38 663.18,970.6 C 659.24,976.56 655.39,982.58 651.64,988.65 C 649.74,992.12 647.79,995.55 645.8,998.93 C 643.95,1002.51 642.05,1006.07 640.12,1009.62 C 637.47,1015.78 634.94,1022 632.52,1028.26 C 631.52,1030.24 630.54,1032.22 629.56,1034.21 C 628.26,1037.91 626.97,1041.62 625.68,1045.31 C 625.27,1045.91 624.89,1046.54 624.54,1047.18 C 623.23,1051.71 621.77,1056.18 620.15,1060.6 C 619.61,1061.4 618.95,1062.11 618.2,1062.71 C 617.43,1064.31 616.74,1065.95 616.14,1067.61 C 615.87,1068.26 615.42,1068.71 614.77,1068.97 C 615.92,1064.71 616.88,1060.4 617.66,1056.05 C 618.24,1050.88 618.73,1045.69 619.12,1040.5 C 618.96,1030.65 617.65,1020.96 615.19,1011.43 C 611.03,997.65 604.89,984.81 596.78,972.91 C 592.56,966.74 588.37,960.56 584.19,954.36 C 577.09,943.44 572.57,931.55 570.64,918.68 C 570.13,915.63 570,912.58 570.25,909.5 C 571.93,892.87 578.01,878.03 588.47,864.97 C 596.88,854.63 606.6,845.71 617.63,838.22 C 630.09,829.91 643.13,822.62 656.75,816.36 C 662.08,814.03 667.39,811.62 672.65,809.14 C 696.34,799.37 720.15,789.91 744.08,780.77 C 756.31,775.91 768.27,770.47 779.95,764.44 C 792.99,757.55 805.15,749.37 816.45,739.9 C 821.38,735.2 826.2,730.38 830.89,725.45 C 834.28,721.04 837.39,716.46 840.23,711.68 C 843.58,705.8 846.09,699.59 847.77,693.05 Z"/></g>
<g><path fill="#fef2de" stroke="#fef2de" stroke-width="0.5" d="M 255.99,691.97 C 266.68,692.11 277.37,692.47 288.04,693.04 C 298.68,693.8 309.29,694.78 319.89,695.99 C 330.62,697.86 341.34,699.83 352.05,701.9 C 355.01,702.6 357.96,703.37 360.9,704.21 C 361.12,704.45 361.37,704.64 361.67,704.78 C 363.13,704.95 364.58,705.15 366.03,705.38 C 372.07,707.09 378.07,708.93 384.04,710.89 C 394.86,714.36 405.46,718.41 415.85,723.03 C 424.37,726.93 432.74,731.1 440.99,735.52 C 443.28,736.13 445.61,736.31 447.99,736.07 C 447.73,737.44 447.97,738.7 448.7,739.86 C 453.01,742.52 457.33,745.16 461.66,747.79 C 467.77,751.85 473.83,755.97 479.85,760.15 C 483.11,762.93 486.46,765.61 489.88,768.19 C 493.84,771.7 497.69,775.33 501.43,779.07 C 505.07,782.63 508.56,786.32 511.9,790.15 C 514.95,793.8 518,797.43 521.04,801.04 C 505.71,809.77 491.67,820.22 478.9,832.4 C 468.59,842.07 459.76,852.93 452.39,864.97 C 445.45,876.67 440.68,889.18 438.07,902.51 C 436.18,913.45 435.86,924.44 437.1,935.49 C 438.46,944.63 440.87,953.49 444.34,962.06 C 448.03,969.53 452.31,976.64 457.18,983.4 C 462.58,990.57 468.11,997.65 473.75,1004.64 C 484.8,1019.59 492.73,1036.04 497.53,1053.99 C 498.82,1059.17 499.87,1064.4 500.66,1069.68 C 500.84,1071.96 501.01,1074.24 501.19,1076.52 C 501.25,1077.15 501.15,1077.76 500.89,1078.33 C 500.37,1078.64 499.96,1078.51 499.64,1077.95 C 495.49,1071.09 491.32,1064.24 487.15,1057.39 C 475.14,1038.3 461.37,1020.57 445.86,1004.2 C 446.53,1004.13 447.11,1003.88 447.63,1003.47 C 447.25,1002.78 447.18,1002.09 447.43,1001.41 C 448.76,1002.23 449.96,1003.24 451.01,1004.44 C 451.46,1004.76 451.97,1004.95 452.52,1005.01 C 454.04,1005.21 455.13,1004.65 455.79,1003.31 C 456.05,1002.03 456.24,1000.74 456.34,999.44 C 455.13,995.91 453.97,992.33 452.86,988.72 C 451.65,986.14 450.53,983.53 449.49,980.89 C 447.34,977.33 445.38,973.66 443.61,969.88 C 443.07,969.11 442.47,968.39 441.8,967.73 C 440.6,965.6 439.41,963.47 438.23,961.34 C 435.4,957.48 432.67,953.55 430.05,949.54 C 424.66,943.89 419.37,938.16 414.19,932.33 C 412.61,930.52 411.22,928.58 410.03,926.49 C 405.37,921.8 400.85,916.98 396.47,912.03 C 393.5,908.98 390.43,906.03 387.28,903.19 C 385.19,901.27 382.95,899.55 380.55,898.02 C 378.62,896.22 376.74,894.37 374.94,892.45 C 370.74,889.71 366.55,886.93 362.38,884.14 C 358.97,882.67 355.73,880.89 352.67,878.8 C 344.73,875.51 336.85,872.06 329.02,868.46 C 323.8,866.7 318.58,864.97 313.34,863.25 C 308.11,861.68 302.85,860.27 297.54,859.03 C 290.68,857.53 283.76,856.43 276.77,855.71 C 276.02,855.41 275.26,855.17 274.49,854.97 C 272.08,855.22 269.75,854.92 267.5,854.07 C 264.76,854.21 262.09,853.88 259.48,853.09 C 256.44,853.14 253.44,852.87 250.47,852.29 C 245.82,851.88 241.16,851.74 236.49,851.87 C 235.49,851.62 234.49,851.43 233.47,851.3 C 227.15,851.19 220.82,851.15 214.5,851.17 C 207.53,851.8 200.54,852.19 193.54,852.34 C 184.87,853.39 176.19,854.42 167.51,855.43 C 166.1,855.68 164.7,855.67 163.31,855.4 C 162.69,854.52 162.55,853.55 162.87,852.48 C 163.73,849.38 164.66,846.29 165.68,843.21 C 168.28,832.71 170.8,822.19 173.24,811.66 C 180.08,785.87 186.95,760.1 193.86,734.35 C 194.43,732.36 193.72,731.48 191.73,731.72 C 191.86,731.46 191.99,731.2 192.12,730.94 C 192.75,730.99 193.31,730.82 193.8,730.41 C 194.61,728.81 195.34,727.17 195.97,725.49 C 198.15,718.42 200.13,711.3 201.89,704.11 C 202.74,699.82 205.11,696.68 209.01,694.68 C 210.11,694.03 211.29,693.57 212.54,693.3 C 216.39,693.17 220.25,693.08 224.11,693.04 C 228.22,692.57 232.36,692.25 236.5,692.08 C 243,692.04 249.49,692.01 255.99,691.97 Z M 645.8,998.93 C 646.3,1000.28 646.13,1001.54 645.31,1002.72 C 645.16,1003.07 645.21,1003.37 645.48,1003.61 C 646.07,1003.32 646.69,1003.18 647.33,1003.18 C 649.17,1003.85 651.06,1004.29 653.02,1004.47 C 654.25,1004.67 654.72,1005.35 654.4,1006.5 C 654.78,1006.88 655.18,1007.23 655.63,1007.55 C 655.15,1007.9 654.69,1008.28 654.24,1008.68 C 653.83,1010.15 654.32,1011.2 655.68,1011.84 C 656.18,1011.95 656.58,1011.79 656.87,1011.37 C 657.53,1010 658.14,1008.62 658.69,1007.24 C 658.88,1007.24 659.08,1007.24 659.27,1007.25 C 659.75,1007.72 660.23,1008.21 660.69,1008.7 C 661.29,1008.76 661.88,1008.67 662.45,1008.44 C 663.72,1008.67 664.99,1008.93 666.24,1009.22 C 661.19,1014.69 656.26,1020.26 651.46,1025.95 C 643.34,1035.96 635.65,1046.31 628.41,1056.98 C 623.1,1065.33 617.77,1073.66 612.4,1081.98 C 611.69,1083.2 611.09,1084.46 610.59,1085.77 C 610.47,1086.28 610.61,1086.7 611,1087.02 C 610.02,1087.36 609.09,1087.79 608.19,1088.3 C 608.23,1086.83 608.79,1085.62 609.85,1084.64 C 609.77,1083.88 609.82,1083.13 610,1082.39 C 611.84,1078 613.44,1073.53 614.77,1068.97 C 615.42,1068.71 615.87,1068.26 616.14,1067.61 C 616.74,1065.95 617.43,1064.31 618.2,1062.71 C 618.95,1062.11 619.61,1061.4 620.15,1060.6 C 621.77,1056.18 623.23,1051.71 624.54,1047.18 C 624.89,1046.54 625.27,1045.91 625.68,1045.31 C 626.97,1041.62 628.26,1037.91 629.56,1034.21 C 630.54,1032.22 631.52,1030.24 632.52,1028.26 C 634.94,1022 637.47,1015.78 640.12,1009.62 C 642.05,1006.07 643.95,1002.51 645.8,998.93 Z"/></g>
<g><path fill="#feefd4" stroke="#feefd4" stroke-width="0.5" d="M 915.92,730.68 C 919.97,731.91 923.99,733.25 927.96,734.71 C 928.98,735.2 929.98,735.71 930.96,736.27 C 931.17,736.5 931.41,736.69 931.68,736.83 C 932.73,737.03 933.77,737.27 934.79,737.56 C 937.67,739.05 940.57,740.5 943.49,741.92 C 949.09,744.99 954.51,748.35 959.76,752 C 963.59,755.42 967.42,758.84 971.25,762.25 C 972.83,764.21 974.41,766.17 976.01,768.12 C 977.72,771.41 979.24,774.78 980.58,778.22 C 979.16,780.53 978.94,782.96 979.95,785.51 C 981.65,790.19 983.28,794.9 984.82,799.63 C 998.71,843.02 1012.57,886.42 1026.4,929.83 C 1026.24,930.17 1025.97,930.35 1025.59,930.38 C 1018.53,928.26 1011.46,926.17 1004.38,924.11 C 993.77,921.48 983.11,919.14 972.39,917.09 C 963.79,915.56 955.16,914.22 946.49,913.07 C 940.91,912.38 935.31,911.89 929.69,911.62 C 928.64,911.34 927.58,911.13 926.51,910.98 C 917.17,910.8 907.83,910.6 898.5,910.38 C 892.17,910.69 885.83,910.9 879.5,910.99 C 872.48,911.54 865.48,912.23 858.51,913.07 C 848.52,914.63 838.55,916.3 828.6,918.08 C 819.32,920.22 810.1,922.64 800.94,925.31 C 792.2,928.11 783.53,931.13 774.94,934.37 C 768.68,937.04 762.46,939.81 756.28,942.7 C 748.22,946.89 740.31,951.34 732.54,956.05 C 719.93,963.95 707.73,972.44 695.94,981.53 C 690.38,986.26 684.89,991.08 679.47,995.97 C 674.99,1000.32 670.58,1004.73 666.24,1009.22 C 664.99,1008.93 663.72,1008.67 662.45,1008.44 C 661.88,1008.67 661.29,1008.76 660.69,1008.7 C 660.23,1008.21 659.75,1007.72 659.27,1007.25 C 659.08,1007.24 658.88,1007.24 658.69,1007.24 C 658.14,1008.62 657.53,1010 656.87,1011.37 C 656.58,1011.79 656.18,1011.95 655.68,1011.84 C 654.32,1011.2 653.83,1010.15 654.24,1008.68 C 654.69,1008.28 655.15,1007.9 655.63,1007.55 C 655.18,1007.23 654.78,1006.88 654.4,1006.5 C 654.72,1005.35 654.25,1004.67 653.02,1004.47 C 651.06,1004.29 649.17,1003.85 647.33,1003.18 C 646.69,1003.18 646.07,1003.32 645.48,1003.61 C 645.21,1003.37 645.16,1003.07 645.31,1002.72 C 646.13,1001.54 646.3,1000.28 645.8,998.93 C 647.79,995.55 649.74,992.12 651.64,988.65 C 651.81,989.31 652.21,989.59 652.81,989.49 C 654.94,986.58 657.19,983.78 659.58,981.07 C 664.11,976.24 668.58,971.37 672.98,966.45 C 682.6,956.59 692.91,947.51 703.9,939.19 C 712.56,933.61 721.26,928.09 729.99,922.63 C 736.98,918.93 743.93,915.18 750.84,911.38 C 755.12,909.36 759.36,907.26 763.56,905.09 C 773.96,901.03 784.4,897.1 794.9,893.3 C 800.03,891.67 805.22,890.24 810.47,889.02 C 811.17,888.69 811.85,888.33 812.52,887.92 C 813.17,887.87 813.81,887.85 814.46,887.84 C 817.83,886.89 821.21,885.96 824.59,885.04 C 831.73,883.8 838.87,882.63 846.01,881.53 C 853.23,880.81 860.46,880.09 867.68,879.37 C 874.62,878.91 881.56,878.54 888.5,878.26 C 898.53,878.15 908.56,878.13 918.58,878.19 C 919.04,877.46 919.27,876.64 919.28,875.74 C 920.17,874.96 921.1,874.22 922.08,873.52 C 923.03,872.59 923.85,871.56 924.54,870.44 C 924.87,870.95 925.24,871.42 925.66,871.86 C 925.87,871.87 926.08,871.87 926.29,871.88 C 927.37,870.71 928.69,870.03 930.26,869.81 C 930.45,869.29 930.6,868.76 930.72,868.21 C 931.34,868.26 931.94,868.4 932.53,868.64 C 932.94,867.95 933.28,867.21 933.54,866.43 C 935.62,866.32 937.65,866.04 939.64,865.57 C 938.84,863.73 939.46,862.67 941.51,862.39 C 943.22,863.2 944.52,862.73 945.4,860.99 C 945.52,860.32 945.58,859.65 945.58,858.97 C 946.55,858.38 947.57,857.91 948.64,857.54 C 948.16,857.13 947.72,856.69 947.31,856.2 C 947.19,855.86 947.27,855.58 947.53,855.36 C 949.06,855.8 949.36,855.34 948.44,853.98 C 947.66,853.52 946.82,853.3 945.9,853.31 C 945.57,853.18 945.32,852.96 945.15,852.64 C 946.14,852.87 947.1,852.82 948.05,852.49 C 948.46,852.06 948.56,851.57 948.34,851 C 944.74,838.24 941.23,825.46 937.8,812.66 C 931.87,792.27 925.94,771.88 920.02,751.48 C 918.36,745.11 916.7,738.73 915.06,732.35 C 914.91,731.55 915.2,731 915.92,730.68 Z M 191.73,731.72 C 193.72,731.48 194.43,732.36 193.86,734.35 C 186.95,760.1 180.08,785.87 173.24,811.66 C 170.8,822.19 168.28,832.71 165.68,843.21 C 164.66,846.29 163.73,849.38 162.87,852.48 C 162.55,853.55 162.69,854.52 163.31,855.4 C 164.7,855.67 166.1,855.68 167.51,855.43 C 176.19,854.42 184.87,853.39 193.54,852.34 C 200.54,852.19 207.53,851.8 214.5,851.17 C 220.82,851.15 227.15,851.19 233.47,851.3 C 234.49,851.43 235.49,851.62 236.49,851.87 C 241.16,851.74 245.82,851.88 250.47,852.29 C 253.44,852.87 256.44,853.14 259.48,853.09 C 262.09,853.88 264.76,854.21 267.5,854.07 C 269.75,854.92 272.08,855.22 274.49,854.97 C 275.26,855.17 276.02,855.41 276.77,855.71 C 283.76,856.43 290.68,857.53 297.54,859.03 C 302.85,860.27 308.11,861.68 313.34,863.25 C 318.58,864.97 323.8,866.7 329.02,868.46 C 336.85,872.06 344.73,875.51 352.67,878.8 C 355.73,880.89 358.97,882.67 362.38,884.14 C 366.55,886.93 370.74,889.71 374.94,892.45 C 376.74,894.37 378.62,896.22 380.55,898.02 C 382.95,899.55 385.19,901.27 387.28,903.19 C 390.43,906.03 393.5,908.98 396.47,912.03 C 400.85,916.98 405.37,921.8 410.03,926.49 C 411.22,928.58 412.61,930.52 414.19,932.33 C 419.37,938.16 424.66,943.89 430.05,949.54 C 432.67,953.55 435.4,957.48 438.23,961.34 C 439.41,963.47 440.6,965.6 441.8,967.73 C 442.47,968.39 443.07,969.11 443.61,969.88 C 445.38,973.66 447.34,977.33 449.49,980.89 C 450.53,983.53 451.65,986.14 452.86,988.72 C 453.97,992.33 455.13,995.91 456.34,999.44 C 456.24,1000.74 456.05,1002.03 455.79,1003.31 C 455.13,1004.65 454.04,1005.21 452.52,1005.01 C 451.97,1004.95 451.46,1004.76 451.01,1004.44 C 449.96,1003.24 448.76,1002.23 447.43,1001.41 C 447.18,1002.09 447.25,1002.78 447.63,1003.47 C 447.11,1003.88 446.53,1004.13 445.86,1004.2 C 441.29,999.58 436.67,995.02 431.98,990.52 C 414.42,974.85 395.45,961.12 375.09,949.32 C 361.95,941.82 348.26,935.54 334.02,930.47 C 304.67,920.15 274.5,913.68 243.5,911.05 C 238.15,910.83 232.82,910.46 227.5,909.94 C 216.5,909.78 205.5,909.79 194.5,909.96 C 163.86,911.93 133.75,917.06 104.19,925.35 C 103.1,925.18 102.05,925.02 101.02,924.86 C 102.19,924.02 103.39,923.23 104.63,922.49 C 103.96,921.91 103.2,921.48 102.34,921.2 C 100.85,921.05 99.39,920.8 97.95,920.45 C 97.09,917.91 95.93,915.52 94.46,913.31 C 93.54,913.99 93.15,913.81 93.31,912.76 C 94.45,910.25 95.1,907.62 95.26,904.89 C 95.46,904.42 95.72,903.99 96.05,903.6 C 97.07,903.32 98.02,902.9 98.89,902.35 C 99.34,901.18 99.14,900.13 98.27,899.2 C 97.49,897.25 97.9,895.65 99.53,894.38 C 99.75,895.2 100.07,895.97 100.48,896.7 C 101.39,895.58 101.7,894.3 101.42,892.85 C 100.79,892.49 100.25,892.04 99.79,891.51 C 99.69,890.33 100.14,889.41 101.13,888.76 C 101.82,888.68 102.54,888.71 103.28,888.85 C 104.2,887.91 104.47,886.8 104.11,885.51 C 103.91,884.69 103.53,883.96 102.96,883.32 C 102.51,882.11 102.77,881.1 103.74,880.29 C 105.55,881.19 106.35,880.6 106.13,878.53 C 105.26,877.67 104.92,876.63 105.13,875.42 C 105.36,874.3 105.84,873.3 106.58,872.43 C 106.95,872.9 107.33,873.35 107.72,873.81 C 108.16,873.91 108.46,873.75 108.64,873.31 C 109.24,871.92 109.19,870.58 108.49,869.28 C 107.66,869.76 107.19,869.52 107.09,868.57 C 107.61,867.51 108.09,866.42 108.51,865.29 C 109.16,865.74 109.79,866.2 110.42,866.67 C 111.19,865.48 111.6,864.17 111.65,862.73 C 111.16,862.12 110.53,861.67 109.77,861.37 C 109.35,860.8 109.27,860.19 109.54,859.53 C 110.39,858.6 111.07,857.56 111.59,856.41 C 112.18,859.28 112.87,859.26 113.67,856.33 C 113.69,855.18 113.28,854.21 112.45,853.41 C 112.75,852.22 113.06,851.05 113.39,849.91 C 114.12,850.09 114.82,850.34 115.49,850.69 C 116.12,849.72 116.38,848.63 116.27,847.44 C 115.64,846.23 115.29,844.95 115.22,843.6 C 115.35,843.45 115.49,843.29 115.63,843.14 C 116.28,843.23 116.91,843.4 117.53,843.63 C 118.36,842.48 118.74,841.19 118.67,839.75 C 117.99,838.87 117.49,837.92 117.17,836.88 C 117.75,836.11 118.21,835.29 118.57,834.41 C 119.06,834.65 119.55,834.66 120.04,834.46 C 121.28,833.08 121.24,831.74 119.92,830.44 C 119.88,829.51 119.88,828.57 119.93,827.64 C 119.74,827.34 119.47,827.12 119.15,826.98 C 123.64,812.45 128.22,797.95 132.9,783.48 C 133.4,781.72 133.26,780.03 132.5,778.39 C 132.07,777.85 131.55,777.4 130.96,777.05 C 131.52,776.4 132.16,775.84 132.88,775.36 C 134.02,773.01 135.03,770.6 135.93,768.14 C 136.74,766.7 137.66,765.33 138.69,764.03 C 145.14,757.36 152.31,751.58 160.19,746.7 C 163.04,745.23 165.81,743.62 168.49,741.88 C 171.38,740.4 174.28,738.96 177.19,737.55 C 178.2,737.17 179.23,736.92 180.3,736.78 C 180.58,736.64 180.8,736.43 180.95,736.15 C 184.51,734.6 188.11,733.12 191.73,731.72 Z"/></g>
<g><path fill="#cbb5f2" stroke="#cbb5f2" stroke-width="0.5" d="M 736.09,574.75 C 736.97,575.06 737.82,575.42 738.64,575.86 C 739.78,576.06 740.92,576.1 742.07,575.98 C 742.12,576.36 742.32,576.63 742.68,576.79 C 744.51,577.5 746.4,577.98 748.34,578.21 C 754.91,580.48 761.49,582.69 768.08,584.85 C 770.79,585.89 773.41,587.13 775.96,588.58 C 776.98,588.88 777.99,589.2 779,589.53 C 783.44,591.77 787.9,594 792.36,596.21 C 794.79,597.87 797.3,599.4 799.9,600.79 C 802.24,602.42 804.62,604.02 807.01,605.58 C 808.06,607.03 809.46,607.92 811.2,608.26 C 812,609.89 813.27,611.01 815,611.6 C 816.97,613.57 818.96,615.53 820.94,617.49 C 821.84,617.94 822.69,618.46 823.49,619.06 C 824.38,620.18 825.2,621.36 825.93,622.59 C 827.71,624.56 829.64,626.34 831.72,627.94 C 831.86,628.7 832.11,629.41 832.47,630.08 C 834.9,633.04 837.08,636.18 839.02,639.49 C 839.27,639.84 839.59,640.09 839.98,640.25 C 839.86,640.89 839.93,641.51 840.17,642.11 C 842.82,646.76 844.9,651.64 846.42,656.76 C 847.3,659.7 848.01,662.68 848.55,665.71 C 848.66,667.81 848.93,669.89 849.37,671.95 C 849.26,676.47 849.12,680.99 848.93,685.51 C 848.76,688.05 848.37,690.57 847.77,693.05 C 846.09,699.59 843.58,705.8 840.23,711.68 C 837.39,716.46 834.28,721.04 830.89,725.45 C 826.2,730.38 821.38,735.2 816.45,739.9 C 805.15,749.37 792.99,757.55 779.95,764.44 C 768.27,770.47 756.31,775.91 744.08,780.77 C 720.15,789.91 696.34,799.37 672.65,809.14 C 667.39,811.62 662.08,814.03 656.75,816.36 C 643.13,822.62 630.09,829.91 617.63,838.22 C 606.6,845.71 596.88,854.63 588.47,864.97 C 578.01,878.03 571.93,892.87 570.25,909.5 C 570,912.58 570.13,915.63 570.64,918.68 C 572.57,931.55 577.09,943.44 584.19,954.36 C 588.37,960.56 592.56,966.74 596.78,972.91 C 604.89,984.81 611.03,997.65 615.19,1011.43 C 617.65,1020.96 618.96,1030.65 619.12,1040.5 C 618.73,1045.69 618.24,1050.88 617.66,1056.05 C 616.88,1060.4 615.92,1064.71 614.77,1068.97 C 613.44,1073.53 611.84,1078 610,1082.39 C 609.82,1083.13 609.77,1083.88 609.85,1084.64 C 608.79,1085.62 608.23,1086.83 608.19,1088.3 C 605.37,1089.45 602.48,1090.39 599.53,1091.13 C 591.93,1092.87 584.26,1094.12 576.5,1094.88 C 563.17,1096.21 549.83,1096.16 536.51,1094.73 C 527.5,1093.85 518.67,1092.07 510.04,1089.37 C 506.55,1088.38 503.23,1087.01 500.08,1085.25 C 494.9,1079.78 489.42,1074.63 483.63,1069.8 C 454.13,1045.41 421.72,1025.83 386.4,1011.05 C 355.7,998.21 324.01,988.61 291.35,982.25 C 281.42,980.35 271.46,978.69 261.46,977.29 C 246.85,975.44 232.2,974.06 217.5,973.14 C 196.17,972.36 174.83,972.38 153.5,973.19 C 125.29,974.94 97.31,978.42 69.54,983.63 C 69.12,983.04 69.06,982.41 69.36,981.71 C 74.7,964.72 80.13,947.76 85.65,930.83 C 86.11,930.93 86.57,930.92 87.02,930.8 C 92.67,928.76 98.39,926.95 104.19,925.35 C 133.75,917.06 163.86,911.93 194.5,909.96 C 205.5,909.79 216.5,909.78 227.5,909.94 C 232.82,910.46 238.15,910.83 243.5,911.05 C 274.5,913.68 304.67,920.15 334.02,930.47 C 348.26,935.54 361.95,941.82 375.09,949.32 C 395.45,961.12 414.42,974.85 431.98,990.52 C 436.67,995.02 441.29,999.58 445.86,1004.2 C 461.37,1020.57 475.14,1038.3 487.15,1057.39 C 491.32,1064.24 495.49,1071.09 499.64,1077.95 C 499.96,1078.51 500.37,1078.64 500.89,1078.33 C 501.15,1077.76 501.25,1077.15 501.19,1076.52 C 501.01,1074.24 500.84,1071.96 500.66,1069.68 C 499.87,1064.4 498.82,1059.17 497.53,1053.99 C 492.73,1036.04 484.8,1019.59 473.75,1004.64 C 468.11,997.65 462.58,990.57 457.18,983.4 C 452.31,976.64 448.03,969.53 444.34,962.06 C 440.87,953.49 438.46,944.63 437.1,935.49 C 435.86,924.44 436.18,913.45 438.07,902.51 C 440.68,889.18 445.45,876.67 452.39,864.97 C 459.76,852.93 468.59,842.07 478.9,832.4 C 491.67,820.22 505.71,809.77 521.04,801.04 C 528.89,796.7 536.83,792.5 544.85,788.44 C 555.14,783.6 565.55,779.03 576.08,774.75 C 580.53,773.19 584.95,771.56 589.35,769.84 C 590.04,769.53 590.74,769.25 591.45,768.98 C 591.74,768.85 591.88,768.64 591.88,768.34 C 597.35,766.68 602.75,764.83 608.1,762.8 C 617.1,759.54 626.18,756.55 635.35,753.83 C 636.85,753.16 638.36,752.54 639.89,751.96 C 650.7,748.79 661.46,745.45 672.18,741.95 C 676.23,740.57 680.31,739.25 684.4,737.96 C 685.34,737.52 686.19,736.95 686.97,736.25 C 687.77,736.15 688.56,735.99 689.34,735.78 C 694.38,733.94 699.35,731.94 704.25,729.79 C 707.42,728.14 710.68,726.71 714.02,725.5 C 719.07,722.48 724.24,719.7 729.54,717.15 C 731.34,715.83 733.25,714.68 735.26,713.7 C 735.84,713.36 736.12,712.85 736.1,712.19 C 736.85,712.28 737.55,712.14 738.2,711.77 C 739.01,710.79 740.02,710.11 741.24,709.73 C 743.71,708.08 745.98,706.23 748.06,704.16 C 748.46,704.09 748.82,703.94 749.15,703.7 C 750.53,701.98 752.21,700.63 754.18,699.65 C 757.15,696.64 760.15,693.65 763.16,690.67 C 763.81,689.89 764.32,689.04 764.69,688.09 C 766.38,686.77 767.5,685.08 768.06,683.02 C 768.44,682.96 768.74,682.77 768.96,682.45 C 769.48,681.36 770.14,680.36 770.95,679.46 C 771.85,677.66 772.75,675.86 773.65,674.06 C 773.93,673.4 774.09,672.72 774.13,672.02 C 774.75,671.83 775.17,671.41 775.37,670.77 C 775.86,669.3 776.37,667.83 776.92,666.38 C 777.74,663.11 778.45,659.83 779.07,656.53 C 779.1,652.18 779.08,647.83 779.04,643.49 C 778.68,642.32 778.27,641.17 777.8,640.05 C 777.39,638.28 777.05,636.48 776.77,634.66 C 775.75,632.87 774.99,630.98 774.5,628.99 C 773.26,626.54 772.03,624.08 770.82,621.63 C 769.9,620.39 768.98,619.19 768.04,618.02 C 766.37,615.43 764.85,612.74 763.48,609.95 C 762.83,609.07 762.01,608.43 761.01,608.02 C 759.93,606.55 758.92,605.03 757.99,603.47 C 754.82,600.33 751.66,597.18 748.53,594.01 C 746.31,592.52 744.13,590.99 741.98,589.43 C 740.37,587.37 738.34,585.87 735.89,584.95 C 735.85,584.6 735.68,584.32 735.37,584.12 C 731.59,581.59 727.82,579.05 724.05,576.49 C 723.41,576.07 722.71,575.92 721.95,576.05 C 721.94,575.25 722.02,574.46 722.19,573.67 C 722.49,573.21 722.93,572.98 723.49,573.01 C 725.29,572.78 727.01,573.05 728.64,573.83 C 731.18,573.84 733.67,574.15 736.09,574.75 Z M 1026.4,929.83 C 1031.93,947.41 1037.39,965.01 1042.76,982.64 C 1042.84,983.08 1042.68,983.41 1042.29,983.62 C 1033.7,982.09 1025.09,980.63 1016.47,979.24 C 996.25,976.23 975.92,974.2 955.5,973.17 C 943.84,972.76 932.17,972.62 920.5,972.74 C 899.76,973.14 879.11,974.64 858.53,977.23 C 810.26,983.34 763.85,996.17 719.29,1015.71 C 688.01,1029.68 659.13,1047.53 632.65,1069.27 C 626.99,1073.86 621.64,1078.79 616.59,1084.05 C 614.91,1085.38 613.05,1086.37 611,1087.02 C 610.61,1086.7 610.47,1086.28 610.59,1085.77 C 611.09,1084.46 611.69,1083.2 612.4,1081.98 C 617.77,1073.66 623.1,1065.33 628.41,1056.98 C 635.65,1046.31 643.34,1035.96 651.46,1025.95 C 656.26,1020.26 661.19,1014.69 666.24,1009.22 C 670.58,1004.73 674.99,1000.32 679.47,995.97 C 684.89,991.08 690.38,986.26 695.94,981.53 C 707.73,972.44 719.93,963.95 732.54,956.05 C 740.31,951.34 748.22,946.89 756.28,942.7 C 762.46,939.81 768.68,937.04 774.94,934.37 C 783.53,931.13 792.2,928.11 800.94,925.31 C 810.1,922.64 819.32,920.22 828.6,918.08 C 838.55,916.3 848.52,914.63 858.51,913.07 C 865.48,912.23 872.48,911.54 879.5,910.99 C 885.83,910.9 892.17,910.69 898.5,910.38 C 907.83,910.6 917.17,910.8 926.51,910.98 C 927.58,911.13 928.64,911.34 929.69,911.62 C 935.31,911.89 940.91,912.38 946.49,913.07 C 955.16,914.22 963.79,915.56 972.39,917.09 C 983.11,919.14 993.77,921.48 1004.38,924.11 C 1011.46,926.17 1018.53,928.26 1025.59,930.38 C 1025.97,930.35 1026.24,930.17 1026.4,929.83 Z"/></g>
<g><path fill="#fdc706" stroke="#fdc706" stroke-width="0.5" d="M 565.7,351.75 C 567.22,359.72 569.52,367.47 572.6,374.98 C 573.46,376.73 574.45,378.41 575.6,379.99 C 576.59,381.56 577.73,383.03 578.99,384.39 C 584.21,390.14 590.56,394.14 598.02,396.38 C 601.26,397.56 604.56,398.54 607.92,399.3 C 611.42,400.06 614.94,400.67 618.49,401.13 C 619.75,401.38 620.92,401.87 621.98,402.59 C 623.66,403.78 624.31,405.37 623.92,407.38 C 623.01,409.58 621.39,410.97 619.04,411.53 C 613.99,412.33 608.99,413.36 604.04,414.62 C 599.78,415.79 595.64,417.27 591.62,419.09 C 585.16,421.99 579.88,426.3 575.76,432.02 C 572.44,436.87 569.95,442.12 568.31,447.77 C 567.23,451.48 566.32,455.23 565.57,459.02 C 564.89,462.79 564.23,466.55 563.59,470.32 C 563.06,471.99 562.01,473.22 560.46,474 C 557.22,474.84 555.05,473.67 553.95,470.49 C 553.14,466.09 552.29,461.69 551.41,457.3 C 550.57,453.83 549.59,450.4 548.46,447.01 C 547.53,443.51 546.2,440.16 544.49,436.96 C 540.9,430.03 535.72,424.61 528.96,420.72 C 519.6,415.91 509.69,412.86 499.23,411.56 C 495.93,410.93 494.23,408.96 494.13,405.65 C 494.79,403.34 496.31,401.93 498.69,401.42 C 503.29,400.73 507.8,399.71 512.23,398.35 C 520.23,396.77 527.51,393.58 534.09,388.78 C 535.88,387.41 537.51,385.86 538.96,384.13 C 541.28,381.39 543.14,378.36 544.53,375.06 C 545.96,372.67 547.08,370.14 547.9,367.47 C 549.5,362.42 550.82,357.29 551.86,352.09 C 552.66,347.61 553.47,343.12 554.3,338.65 C 555.82,335.33 558.19,334.49 561.41,336.14 C 562.32,336.92 562.98,337.89 563.39,339.03 C 564.12,343.27 564.88,347.51 565.7,351.75 Z M 935.18,449.91 C 935.79,454.81 936.82,459.61 938.28,464.32 C 940.63,471.97 945.64,476.97 953.31,479.32 C 955.24,479.81 957.17,480.3 959.09,480.81 C 959.75,480.97 960.41,481.12 961.07,481.28 C 962.8,481.51 964.48,481.9 966.14,482.44 C 968.45,484.14 968.56,485.96 966.45,487.9 C 964.3,488.64 962.08,489.11 959.81,489.32 C 956.41,489.98 953.14,491.03 949.99,492.47 C 945.6,494.34 942.27,497.37 939.99,501.56 C 938.57,504.92 937.35,508.35 936.31,511.85 C 935.9,514.73 935.53,517.62 935.18,520.51 C 935.07,521.39 934.82,522.23 934.44,523.03 C 932.76,524.74 930.87,524.96 928.79,523.68 C 927.97,519.58 927.12,515.47 926.23,511.37 C 925.88,509.73 925.45,508.12 924.95,506.52 C 923.74,501.86 921.25,498.05 917.48,495.08 C 913.67,492.44 909.5,490.61 904.97,489.6 C 902.26,489.28 899.57,488.85 896.89,488.31 C 894.6,486.67 894.4,484.84 896.28,482.81 C 896.96,482.36 897.69,482.05 898.49,481.88 C 903.4,481.39 908.14,480.2 912.72,478.31 C 917.6,476.2 921.19,472.76 923.5,467.99 C 925.56,462.99 926.96,457.82 927.71,452.46 C 928.02,450.98 928.11,449.48 927.98,447.98 C 928.11,447.62 928.24,447.26 928.37,446.9 C 930.43,444.43 932.46,444.44 934.45,446.93 C 934.88,447.88 935.12,448.87 935.18,449.91 Z M 854.83,544.41 C 856.84,547.77 859.73,550.05 863.48,551.23 C 866.6,552.24 869.78,552.99 873.03,553.46 C 875.53,554.66 875.85,556.31 874,558.38 C 870.49,559.03 867.01,559.85 863.56,560.83 C 860.97,561.73 858.72,563.15 856.81,565.1 C 854.31,568.34 852.69,571.98 851.98,576.01 C 851.39,578.44 851,580.91 850.81,583.4 C 849.34,586.03 847.55,586.28 845.44,584.14 C 844.99,581.76 844.52,579.39 844.01,577.01 C 843.57,573.16 842.32,569.61 840.24,566.35 C 838.09,563.94 835.51,562.08 832.53,560.78 C 829.4,559.8 826.21,559.05 822.97,558.55 C 822.5,558.4 822.06,558.19 821.64,557.91 C 820.35,556.26 820.57,554.85 822.3,553.69 C 825.75,553.11 829.14,552.29 832.47,551.21 C 835.09,550.34 837.39,548.93 839.35,546.99 C 839.8,546.35 840.12,545.64 840.29,544.88 C 840.75,544.71 841.1,544.41 841.34,543.98 C 842.19,542.38 842.85,540.7 843.33,538.95 C 844.33,535.25 845.03,531.49 845.43,527.69 C 846.24,526.01 847.52,525.51 849.28,526.2 C 849.7,526.49 850,526.88 850.19,527.37 C 850.86,531.02 851.62,534.66 852.45,538.29 C 852.96,540.44 853.76,542.48 854.83,544.41 Z"/></g>
<g><path fill="#feeaca" stroke="#feeaca" stroke-width="0.5" d="M 945.15,852.64 C 945.32,852.96 945.57,853.18 945.9,853.31 C 946.82,853.3 947.66,853.52 948.44,853.98 C 949.36,855.34 949.06,855.8 947.53,855.36 C 947.27,855.58 947.19,855.86 947.31,856.2 C 947.72,856.69 948.16,857.13 948.64,857.54 C 947.57,857.91 946.55,858.38 945.58,858.97 C 945.58,859.65 945.52,860.32 945.4,860.99 C 944.52,862.73 943.22,863.2 941.51,862.39 C 939.46,862.67 938.84,863.73 939.64,865.57 C 937.65,866.04 935.62,866.32 933.54,866.43 C 933.28,867.21 932.94,867.95 932.53,868.64 C 931.94,868.4 931.34,868.26 930.72,868.21 C 930.6,868.76 930.45,869.29 930.26,869.81 C 928.69,870.03 927.37,870.71 926.29,871.88 C 926.08,871.87 925.87,871.87 925.66,871.86 C 925.24,871.42 924.87,870.95 924.54,870.44 C 923.85,871.56 923.03,872.59 922.08,873.52 C 921.1,874.22 920.17,874.96 919.28,875.74 C 919.27,876.64 919.04,877.46 918.58,878.19 C 908.56,878.13 898.53,878.15 888.5,878.26 C 881.56,878.54 874.62,878.91 867.68,879.37 C 860.46,880.09 853.23,880.81 846.01,881.53 C 838.87,882.63 831.73,883.8 824.59,885.04 C 821.21,885.96 817.83,886.89 814.46,887.84 C 813.81,887.85 813.17,887.87 812.52,887.92 C 811.85,888.33 811.17,888.69 810.47,889.02 C 805.22,890.24 800.03,891.67 794.9,893.3 C 784.4,897.1 773.96,901.03 763.56,905.09 C 759.36,907.26 755.12,909.36 750.84,911.38 C 743.93,915.18 736.98,918.93 729.99,922.63 C 721.26,928.09 712.56,933.61 703.9,939.19 C 692.91,947.51 682.6,956.59 672.98,966.45 C 668.58,971.37 664.11,976.24 659.58,981.07 C 657.19,983.78 654.94,986.58 652.81,989.49 C 652.21,989.59 651.81,989.31 651.64,988.65 C 655.39,982.58 659.24,976.56 663.18,970.6 C 668.47,962.38 674.24,954.52 680.51,947.02 C 685.6,941.11 690.74,935.24 695.91,929.41 C 708.06,915.95 721.75,904.31 737,894.5 C 747.77,887.65 758.88,881.43 770.35,875.84 C 780.98,870.78 791.87,866.34 803.01,862.52 C 819.56,857.26 836.46,853.57 853.71,851.46 C 873.91,849.03 894.17,848.23 914.5,849.06 C 924.78,849.7 935,850.89 945.15,852.64 Z"/></g>
<g><path fill="#f8f0e0" d="M 119.15,826.98 C 119.47,827.12 119.74,827.34 119.93,827.64 C 119.88,828.57 119.88,829.51 119.92,830.44 C 121.24,831.74 121.28,833.08 120.04,834.46 C 119.55,834.66 119.06,834.65 118.57,834.41 C 118.21,835.29 117.75,836.11 117.17,836.88 C 117.49,837.92 117.99,838.87 118.67,839.75 C 118.74,841.19 118.36,842.48 117.53,843.63 C 116.91,843.4 116.28,843.23 115.63,843.14 C 115.49,843.29 115.35,843.45 115.22,843.6 C 115.29,844.95 115.64,846.23 116.27,847.44 C 116.38,848.63 116.12,849.72 115.49,850.69 C 114.82,850.34 114.12,850.09 113.39,849.91 C 113.06,851.05 112.75,852.22 112.45,853.41 C 113.28,854.21 113.69,855.18 113.67,856.33 C 112.87,859.26 112.18,859.28 111.59,856.41 C 111.07,857.56 110.39,858.6 109.54,859.53 C 109.27,860.19 109.35,860.8 109.77,861.37 C 110.53,861.67 111.16,862.12 111.65,862.73 C 111.6,864.17 111.19,865.48 110.42,866.67 C 109.79,866.2 109.16,865.74 108.51,865.29 C 108.09,866.42 107.61,867.51 107.09,868.57 C 107.19,869.52 107.66,869.76 108.49,869.28 C 109.19,870.58 109.24,871.92 108.64,873.31 C 108.46,873.75 108.16,873.91 107.72,873.81 C 107.33,873.35 106.95,872.9 106.58,872.43 C 105.84,873.3 105.36,874.3 105.13,875.42 C 104.92,876.63 105.26,877.67 106.13,878.53 C 106.35,880.6 105.55,881.19 103.74,880.29 C 102.77,881.1 102.51,882.11 102.96,883.32 C 103.53,883.96 103.91,884.69 104.11,885.51 C 104.47,886.8 104.2,887.91 103.28,888.85 C 102.54,888.71 101.82,888.68 101.13,888.76 C 100.14,889.41 99.69,890.33 99.79,891.51 C 100.25,892.04 100.79,892.49 101.42,892.85 C 101.7,894.3 101.39,895.58 100.48,896.7 C 100.07,895.97 99.75,895.2 99.53,894.38 C 97.9,895.65 97.49,897.25 98.27,899.2 C 99.14,900.13 99.34,901.18 98.89,902.35 C 98.02,902.9 97.07,903.32 96.05,903.6 C 95.72,903.99 95.46,904.42 95.26,904.89 C 95.1,907.62 94.45,910.25 93.31,912.76 C 93.15,913.81 93.54,913.99 94.46,913.31 C 95.93,915.52 97.09,917.91 97.95,920.45 C 99.39,920.8 100.85,921.05 102.34,921.2 C 103.2,921.48 103.96,921.91 104.63,922.49 C 103.39,923.23 102.19,924.02 101.02,924.86 C 102.05,925.02 103.1,925.18 104.19,925.35 C 98.39,926.95 92.67,928.76 87.02,930.8 C 86.57,930.92 86.11,930.93 85.65,930.83 C 96.91,896.25 108.08,861.63 119.15,826.98 Z"/></g>
<g><path fill="#e3e0e6" d="M 990.03,1020.81 C 999.73,1021.31 1009.4,1022.09 1019.05,1023.13 C 1019.1,1023.57 1018.9,1023.84 1018.47,1023.94 C 1015.14,1023.84 1011.81,1023.74 1008.49,1023.64 C 1003.01,1024.11 997.52,1024.21 992.02,1023.94 C 992.06,1023.49 992.02,1023.04 991.89,1022.6 C 991.24,1022.03 990.62,1021.44 990.03,1020.81 Z"/></g>
<g><path fill="#2d175f" stroke="#2d175f" stroke-width="0.5" d="M 572.88,20.15 C 584.56,19.87 596.22,20.11 607.88,20.88 C 618.31,21.52 628.68,22.73 638.98,24.49 C 650,26.34 660.94,28.58 671.8,31.22 C 673.56,31.78 675.32,32.32 677.1,32.83 C 686.11,35.49 695.04,38.43 703.87,41.63 C 714.59,45.57 725.04,50.12 735.23,55.29 C 741.66,58.52 747.98,61.97 754.17,65.63 C 758.47,68.15 762.7,70.78 766.86,73.52 C 783.43,84.74 798.62,97.59 812.44,112.06 C 826.54,127.23 838.65,143.85 848.78,161.91 C 859.7,181.47 867.6,202.18 872.48,224.05 C 875,235.25 876.85,246.56 878.02,257.98 C 878.2,261.64 878.53,265.28 878.99,268.91 C 878.4,269.27 878.09,269.8 878.05,270.5 C 878.4,275.16 878.45,279.82 878.18,284.49 C 878.12,285.12 878.33,285.64 878.8,286.06 C 878.77,286.75 878.8,287.44 878.9,288.13 C 878.29,294.57 877.62,301.03 876.89,307.5 C 876.35,311.67 875.71,315.83 874.97,319.97 C 873.26,330.48 870.79,340.82 867.59,350.98 C 866.13,355.7 864.55,360.39 862.85,365.04 C 860.65,371.15 858.15,377.15 855.37,383.02 C 849.94,394.33 843.81,405.24 836.97,415.75 C 834.99,418.42 833,421.09 831.01,423.76 C 824.74,432.03 818.16,440.05 811.27,447.82 C 807.31,452.22 803.21,456.51 799,460.67 C 792.2,467.2 785.23,473.54 778.08,479.68 C 774.53,482.31 771.06,485.04 767.66,487.87 C 747.37,502.71 725.94,515.68 703.37,526.76 C 692.18,532.2 681.06,537.78 670.01,543.51 C 659.51,549.03 649.34,555.11 639.51,561.74 C 633.22,565.8 627.35,570.4 621.91,575.54 C 616.2,580.6 611.29,586.36 607.19,592.79 C 604.12,597.49 601.67,602.49 599.85,607.81 C 598.85,610.92 597.7,613.98 596.4,616.98 C 592.4,624.84 586.05,629.4 577.35,630.67 C 572.09,631.4 567.08,630.59 562.33,628.22 C 554.56,623.72 550.09,617.01 548.9,608.1 C 547.69,597.36 548.82,586.87 552.27,576.61 C 556.03,565.27 561.4,554.74 568.39,545.04 C 571.02,541.23 573.88,537.6 576.98,534.16 C 584.18,526.43 591.84,519.18 599.95,512.41 C 602.99,510.1 606.02,507.77 609.04,505.44 C 624.01,494.73 638.99,484.02 653.97,473.32 C 660.75,468.19 667.28,462.75 673.57,457.03 C 676.46,454.51 679.28,451.91 682.01,449.23 C 701.52,430.62 717.05,409.15 728.63,384.81 C 731.64,378.29 734.36,371.65 736.76,364.88 C 738.22,360.92 739.49,356.89 740.59,352.81 C 743.73,341.67 746.17,330.38 747.89,318.93 C 749.37,308.59 750.17,298.19 750.3,287.74 C 750.19,277.48 749.46,267.26 748.11,257.08 C 744.89,234.22 737.82,212.62 726.89,192.28 C 713.75,167.86 696.02,147.43 673.7,130.97 C 672.21,129.86 670.7,128.77 669.16,127.71 C 660.2,121.5 650.78,116.1 640.89,111.51 C 630.3,106.49 619.29,102.61 607.88,99.88 C 597.03,97.31 586.04,95.76 574.9,95.24 C 564.34,94.67 553.84,95.18 543.38,96.77 C 532.79,98.22 522.4,100.54 512.2,103.75 C 500.51,107.43 489.28,112.19 478.51,118.02 C 473.16,121.06 467.94,124.31 462.86,127.78 C 457.05,131.79 451.56,136.2 446.38,141 C 440.58,146.47 435.11,152.24 429.97,158.32 C 413.97,177.58 402.89,199.34 396.7,223.6 C 394.11,232.98 392.33,242.51 391.37,252.2 C 390.27,265.11 390.56,277.98 392.25,290.82 C 393.79,300.7 396.28,310.34 399.72,319.74 C 403.48,330.62 408.75,340.71 415.53,350.01 C 416.02,350.73 416.5,351.45 417,352.15 C 420.36,356.93 423.96,361.51 427.79,365.91 C 432.45,372.53 434.21,379.86 433.08,387.88 C 430.75,398.5 424.8,406.44 415.22,411.68 C 412.54,413.12 409.77,414.37 406.91,415.4 C 401.22,417.46 395.35,418.55 389.29,418.7 C 387.03,418.9 384.77,418.97 382.5,418.9 C 358.34,417.84 337.6,408.87 320.29,391.99 C 317.65,389.45 315.21,386.73 312.97,383.84 C 305.53,374.08 299.48,363.52 294.82,352.16 C 292.53,346.93 290.66,341.55 289.22,336.02 C 287.66,330.53 286.35,324.99 285.31,319.38 C 284.01,312.26 283.19,305.1 282.84,297.88 C 282.15,283.73 282.99,269.67 285.34,255.7 C 286.27,249.77 287.43,243.88 288.82,238.04 C 290.03,233.25 291.32,228.49 292.7,223.75 C 295.94,213.17 299.8,202.81 304.26,192.68 C 314.56,169.57 327.89,148.35 344.23,129.02 C 347.01,125.57 349.94,122.25 353.02,119.07 C 360.35,111.16 368.05,103.64 376.12,96.49 C 379.1,93.98 382.1,91.48 385.11,89 C 395.26,80.72 405.91,73.14 417.07,66.28 C 427.35,59.98 437.97,54.33 448.94,49.33 C 459.14,44.7 469.54,40.63 480.16,37.1 C 484.46,35.74 488.75,34.35 493.04,32.95 C 499.32,31.1 505.66,29.46 512.05,28.03 C 522.61,25.69 533.23,23.72 543.91,22.14 C 553.54,21.1 563.2,20.44 572.88,20.15 Z M 388.98,269 C 388.89,271.91 389.11,274.79 389.65,277.65 C 389.98,276.99 390.13,276.29 390.11,275.54 C 390.36,270.17 390.3,264.81 389.92,259.45 C 389.88,258.97 389.7,258.55 389.4,258.2 C 389.11,261.78 388.97,265.38 388.98,269 Z M 575.14,646.88 C 584.06,648.25 592.04,651.77 599.07,657.42 C 602.03,660.15 604.93,662.94 607.76,665.79 C 609,668.03 610.36,670.18 611.86,672.25 C 612.8,674.81 613.72,677.38 614.63,679.96 C 616.02,684.37 616.66,688.88 616.52,693.5 C 616.47,696.93 616.24,700.34 615.83,703.73 C 614.95,706.65 613.89,709.51 612.65,712.31 C 611.15,715.68 609.36,718.89 607.27,721.93 C 602.51,727.74 596.79,732.34 590.1,735.74 C 588.16,736.38 586.26,737.12 584.39,737.94 C 582.02,738.65 579.62,739.27 577.19,739.8 C 568.61,741.09 560.11,740.7 551.69,738.64 C 549.12,737.74 546.55,736.85 543.98,735.99 C 540.34,733.87 536.86,731.5 533.54,728.9 C 527.68,723.64 523.26,717.36 520.27,710.07 C 519.65,707.98 518.95,705.91 518.18,703.88 C 517.15,697.76 517.08,691.63 517.97,685.49 C 518.77,681.02 520.2,676.76 522.26,672.71 C 527.46,662.42 535.33,654.96 545.89,650.31 C 552.47,647.48 559.34,646.16 566.5,646.34 C 569.39,646.36 572.27,646.53 575.14,646.88 Z M 127.78,776.22 C 128.88,776.33 129.94,776.6 130.96,777.05 C 131.55,777.4 132.07,777.85 132.5,778.39 C 133.26,780.03 133.4,781.72 132.9,783.48 C 128.22,797.95 123.64,812.45 119.15,826.98 C 108.08,861.63 96.91,896.25 85.65,930.83 C 80.13,947.76 74.7,964.72 69.36,981.71 C 69.06,982.41 69.12,983.04 69.54,983.63 C 97.31,978.42 125.29,974.94 153.5,973.19 C 174.83,972.38 196.17,972.36 217.5,973.14 C 232.2,974.06 246.85,975.44 261.46,977.29 C 271.46,978.69 281.42,980.35 291.35,982.25 C 324.01,988.61 355.7,998.21 386.4,1011.05 C 421.72,1025.83 454.13,1045.41 483.63,1069.8 C 489.42,1074.63 494.9,1079.78 500.08,1085.25 C 503.23,1087.01 506.55,1088.38 510.04,1089.37 C 518.67,1092.07 527.5,1093.85 536.51,1094.73 C 549.83,1096.16 563.17,1096.21 576.5,1094.88 C 584.26,1094.12 591.93,1092.87 599.53,1091.13 C 602.48,1090.39 605.37,1089.45 608.19,1088.3 C 609.09,1087.79 610.02,1087.36 611,1087.02 C 613.05,1086.37 614.91,1085.38 616.59,1084.05 C 621.64,1078.79 626.99,1073.86 632.65,1069.27 C 659.13,1047.53 688.01,1029.68 719.29,1015.71 C 763.85,996.17 810.26,983.34 858.53,977.23 C 879.11,974.64 899.76,973.14 920.5,972.74 C 932.17,972.62 943.84,972.76 955.5,973.17 C 975.92,974.2 996.25,976.23 1016.47,979.24 C 1025.09,980.63 1033.7,982.09 1042.29,983.62 C 1042.68,983.41 1042.84,983.08 1042.76,982.64 C 1037.39,965.01 1031.93,947.41 1026.4,929.83 C 1012.57,886.42 998.71,843.02 984.82,799.63 C 983.28,794.9 981.65,790.19 979.95,785.51 C 978.94,782.96 979.16,780.53 980.58,778.22 C 981.55,777.32 982.68,776.72 983.98,776.43 C 986.7,776.12 989.43,776.04 992.18,776.18 C 997.28,775.95 1002.25,776.68 1007.06,778.37 C 1013.03,780.91 1017.09,785.23 1019.25,791.33 C 1023.66,804.72 1028.15,818.07 1032.73,831.4 C 1036.42,842.67 1040.21,853.9 1044.11,865.11 C 1051.35,886.12 1058.57,907.14 1065.78,928.17 C 1069.31,939.1 1072.94,950 1076.69,960.86 C 1080.25,970.85 1083.63,980.9 1086.85,991 C 1086.95,991.29 1087.05,991.57 1087.16,991.86 C 1088.74,996.2 1090.25,1000.56 1091.68,1004.94 C 1093.89,1011.11 1093.5,1017.11 1090.52,1022.95 C 1089.27,1024.44 1087.87,1025.79 1086.33,1026.98 C 1081.84,1030.03 1076.9,1031.11 1071.52,1030.25 C 1067.02,1029.38 1062.5,1028.64 1057.96,1028 C 1046.58,1026.07 1035.14,1024.58 1023.64,1023.53 C 1022.11,1023.4 1020.58,1023.27 1019.05,1023.13 C 1009.4,1022.09 999.73,1021.31 990.03,1020.81 C 980.13,1020.29 970.22,1019.9 960.31,1019.63 C 941.01,1019.42 921.74,1020.13 902.51,1021.75 C 900.24,1021.9 898.02,1022.3 895.87,1022.94 C 893.43,1022.87 890.99,1022.99 888.55,1023.32 C 880.32,1024.19 872.12,1025.22 863.93,1026.38 C 852.61,1028.06 841.34,1030.01 830.12,1032.26 C 819.9,1034.36 809.77,1036.84 799.73,1039.69 C 788.37,1042.57 777.15,1045.9 766.05,1049.67 C 761.38,1051.38 756.71,1053.08 752.03,1054.77 C 746.24,1056.83 740.53,1059.07 734.89,1061.52 C 724.35,1065.88 714.02,1070.7 703.9,1075.95 C 696.7,1079.44 689.71,1083.3 682.93,1087.55 C 678.86,1089.82 674.88,1092.23 670.99,1094.78 C 667.22,1097.22 663.53,1099.76 659.9,1102.39 C 658.92,1103.1 658.01,1103.9 657.18,1104.78 C 655.41,1107.32 653.8,1109.95 652.33,1112.68 C 650.68,1115.1 648.9,1117.41 646.99,1119.61 C 644.52,1121.71 642.04,1123.78 639.54,1125.84 C 629.76,1132.06 619.26,1136.66 608.04,1139.64 C 597.59,1142.18 587,1143.88 576.27,1144.75 C 565.6,1145.47 554.92,1145.63 544.23,1145.24 C 533.38,1144.62 522.63,1143.2 511.99,1140.95 C 501.06,1138.64 490.68,1134.84 480.85,1129.55 C 476.15,1126.75 471.87,1123.42 468.01,1119.54 C 466.09,1117.47 464.3,1115.29 462.65,1112.99 C 460.94,1110.01 459.17,1107.05 457.35,1104.14 C 454.76,1101.74 451.97,1099.6 448.99,1097.7 C 443.84,1094.04 438.51,1090.66 433.01,1087.55 C 427.75,1084.25 422.35,1081.18 416.81,1078.36 C 406.77,1072.95 396.5,1068 386.02,1063.5 C 364.4,1053.75 342.13,1045.88 319.19,1039.89 C 309.18,1036.98 299.06,1034.48 288.84,1032.37 C 277.66,1030.12 266.43,1028.12 255.16,1026.36 C 244.82,1024.91 234.46,1023.68 224.06,1022.68 C 220.91,1022.21 217.74,1021.83 214.56,1021.55 C 207.96,1021.24 201.36,1020.84 194.77,1020.35 C 183.06,1019.76 171.34,1019.51 159.62,1019.58 C 149.07,1019.79 138.52,1020.07 127.98,1020.4 C 115.48,1021.12 103,1022.11 90.54,1023.36 C 81.62,1024.19 72.74,1025.33 63.9,1026.77 C 56.08,1027.78 48.28,1028.93 40.5,1030.24 C 38.28,1030.5 36.07,1030.47 33.87,1030.14 C 29.2,1029.2 25.41,1026.83 22.5,1023.04 C 19.5,1017.97 18.85,1012.63 20.55,1007.01 C 22.16,1002.36 23.75,997.7 25.3,993.03 C 32.84,971.53 40.17,949.96 47.27,928.31 C 50.69,918.24 54.1,908.16 57.5,898.08 C 64.86,876.32 72.22,854.56 79.59,832.81 C 83.17,822.18 86.74,811.54 90.32,800.91 C 91.67,796.92 93.06,792.94 94.5,788.98 C 95.24,787.21 96.2,785.55 97.38,784.03 C 100.41,780.58 104.17,778.31 108.64,777.2 C 110.89,776.63 113.18,776.3 115.5,776.22 C 119.59,776.13 123.68,776.13 127.78,776.22 Z M 934.96,1018.03 C 935.05,1018.36 935.27,1018.57 935.6,1018.67 C 938.9,1018.69 942.19,1018.79 945.49,1018.94 C 953.21,1019.05 960.92,1018.91 968.6,1018.52 C 958.23,1017.87 947.86,1017.83 937.48,1018.38 C 936.63,1018.33 935.79,1018.21 934.96,1018.03 Z"/></g>
<g><path fill="#f9f8fb" d="M 194.77,1020.35 C 201.36,1020.84 207.96,1021.24 214.56,1021.55 C 217.74,1021.83 220.91,1022.21 224.06,1022.68 C 223.99,1023.04 223.93,1023.41 223.86,1023.77 C 213.24,1024.05 202.62,1024.15 192,1024.06 C 191.92,1023.18 191.95,1022.31 192.1,1021.45 C 192.92,1020.91 193.81,1020.55 194.77,1020.35 Z"/></g>
<g><path fill="#e0dbe8" d="M 878.99,268.91 C 879.62,269.64 879.93,270.5 879.91,271.48 C 880.13,275.82 880.12,280.15 879.87,284.48 C 879.81,285.22 879.46,285.74 878.8,286.06 C 879.06,280.34 879.12,274.63 878.99,268.91 Z"/></g>
<g><path fill="#1e0b53" d="M 934.96,1018.03 C 935.79,1018.21 936.63,1018.33 937.48,1018.38 C 947.86,1017.83 958.23,1017.87 968.6,1018.52 C 960.92,1018.91 953.21,1019.05 945.49,1018.94 C 942.19,1018.79 938.9,1018.69 935.6,1018.67 C 935.27,1018.57 935.05,1018.36 934.96,1018.03 Z"/></g>
<g><path fill="#18054b" d="M 388.98,269 C 388.97,265.38 389.11,261.78 389.4,258.2 C 389.7,258.55 389.88,258.97 389.92,259.45 C 390.3,264.81 390.36,270.17 390.11,275.54 C 390.13,276.29 389.98,276.99 389.65,277.65 C 389.11,274.79 388.89,271.91 388.98,269 Z"/></g>
<g><path fill="#45366e" d="M 878.99,268.91 C 879.12,274.63 879.06,280.34 878.8,286.06 C 878.33,285.64 878.12,285.12 878.18,284.49 C 878.45,279.82 878.4,275.16 878.05,270.5 C 878.09,269.8 878.4,269.27 878.99,268.91 Z"/></g>
</svg>
